<svg viewBox="0 0 500 500" width="300" height="100">
    <svg xmlns="http://www.w3.org/2000/svg" viewBox="0 0 512 512" width="50" height="50" transform="translate(100, 50)">
            <path fill="#c2e4ff" d="M96 320c-53 0-96-43-96-96c0-42.5 27.6-78.6 65.9-91.2C64.7 126.1 64 119.1 64 112C64 50.1 114.1 0 176 0c43.1 0 80.5 24.3 99.2 60c14.7-17.1 36.5-28 60.8-28c44.2 0 80 35.8 80 80c0 5.5-.6 10.8-1.6 16c.5 0 1.1 0 1.6 0c53 0 96 43 96 96s-43 96-96 96L96 320zm-6.8 52c1.3-2.5 3.9-4 6.8-4s5.4 1.5 6.8 4l35.1 64.6c4.1 7.5 6.2 15.8 6.2 24.3l0 3c0 26.5-21.5 48-48 48s-48-21.5-48-48l0-3c0-8.5 2.1-16.9 6.2-24.3L89.2 372zm160 0c1.3-2.5 3.9-4 6.8-4s5.4 1.5 6.8 4l35.1 64.6c4.1 7.5 6.2 15.8 6.2 24.3l0 3c0 26.5-21.5 48-48 48s-48-21.5-48-48l0-3c0-8.5 2.1-16.9 6.2-24.3L249.2 372zm124.9 64.6L409.2 372c1.3-2.5 3.9-4 6.8-4s5.4 1.5 6.8 4l35.1 64.6c4.1 7.5 6.2 15.8 6.2 24.3l0 3c0 26.5-21.5 48-48 48s-48-21.5-48-48l0-3c0-8.5 2.1-16.9 6.2-24.3z"/>
    </svg>
    <svg xmlns="http://www.w3.org/2000/svg" viewBox="0 0 640 512" width="50" height="50" transform="translate(150, 100)"><!--!Font Awesome Free 6.6.0 by @fontawesome - https://fontawesome.com License - https://fontawesome.com/license/free Copyright 2024 Fonticons, Inc.-->
            <path fill="#f5f4f0" d="M0 336c0 79.5 64.5 144 144 144l368 0c70.7 0 128-57.3 128-128c0-61.9-44-113.6-102.4-125.4c4.1-10.7 6.4-22.4 6.4-34.6c0-53-43-96-96-96c-19.7 0-38.1 6-53.3 16.2C367 64.2 315.3 32 256 32C167.6 32 96 103.6 96 192c0 2.7 .1 5.4 .2 8.1C40.2 219.8 0 273.2 0 336z"/>
    </svg>
    <svg xmlns="http://www.w3.org/2000/svg" viewBox="0 0 512 512" width="50" height="50" transform="translate(125, 150)"><!--!Font Awesome Free 6.6.0 by @fontawesome - https://fontawesome.com License - https://fontawesome.com/license/free Copyright 2024 Fonticons, Inc.-->
            <path fill="#FFD43B" d="M361.5 1.2c5 2.1 8.6 6.6 9.6 11.9L391 121l107.9 19.8c5.3 1 9.8 4.6 11.9 9.6s1.5 10.7-1.6 15.2L446.9 256l62.3 90.3c3.1 4.5 3.7 10.2 1.6 15.2s-6.6 8.6-11.9 9.6L391 391 371.1 498.9c-1 5.3-4.6 9.8-9.6 11.9s-10.7 1.5-15.2-1.6L256 446.9l-90.3 62.3c-4.5 3.1-10.2 3.7-15.2 1.6s-8.6-6.6-9.6-11.9L121 391 13.1 371.1c-5.3-1-9.8-4.6-11.9-9.6s-1.5-10.7 1.6-15.2L65.1 256 2.8 165.7c-3.1-4.5-3.7-10.2-1.6-15.2s6.6-8.6 11.9-9.6L121 121 140.9 13.1c1-5.3 4.6-9.8 9.6-11.9s10.7-1.5 15.2 1.6L256 65.1 346.3 2.8c4.5-3.1 10.2-3.7 15.2-1.6zM160 256a96 96 0 1 1 192 0 96 96 0 1 1 -192 0zm224 0a128 128 0 1 0 -256 0 128 128 0 1 0 256 0z"/>
    </svg>
    <svg xmlns="http://www.w3.org/2000/svg" viewBox="0 0 640 512" width="50" height="50" transform="translate(75, 150)"><!--!Font Awesome Free 6.6.0 by @fontawesome - https://fontawesome.com License - https://fontawesome.com/license/free Copyright 2024 Fonticons, Inc.-->
            <path fill="#FFD43B" d="M294.2 1.2c5.1 2.1 8.7 6.7 9.6 12.1l14.1 84.7 84.7 14.1c5.4 .9 10 4.5 12.1 9.6s1.5 10.9-1.6 15.4l-38.5 55c-2.2-.1-4.4-.2-6.7-.2c-23.3 0-45.1 6.2-64 17.1l0-1.1c0-53-43-96-96-96s-96 43-96 96s43 96 96 96c8.1 0 15.9-1 23.4-2.9c-36.6 18.1-63.3 53.1-69.8 94.9l-24.4 17c-4.5 3.2-10.3 3.8-15.4 1.6s-8.7-6.7-9.6-12.1L98.1 317.9 13.4 303.8c-5.4-.9-10-4.5-12.1-9.6s-1.5-10.9 1.6-15.4L52.5 208 2.9 137.2c-3.2-4.5-3.8-10.3-1.6-15.4s6.7-8.7 12.1-9.6L98.1 98.1l14.1-84.7c.9-5.4 4.5-10 9.6-12.1s10.9-1.5 15.4 1.6L208 52.5 278.8 2.9c4.5-3.2 10.3-3.8 15.4-1.6zM144 208a64 64 0 1 1 128 0 64 64 0 1 1 -128 0zM639.9 431.9c0 44.2-35.8 80-80 80l-271.9 0c-53 0-96-43-96-96c0-47.6 34.6-87 80-94.6l0-1.3c0-53 43-96 96-96c34.9 0 65.4 18.6 82.2 46.4c13-9.1 28.8-14.4 45.8-14.4c44.2 0 80 35.8 80 80c0 5.9-.6 11.7-1.9 17.2c37.4 6.7 65.8 39.4 65.8 78.7z"/>
    </svg>
    <svg xmlns="http://www.w3.org/2000/svg" viewBox="0 0 512 512" width="50" height="50" transform="translate(50, 100)">
            <path fill="#c2e4ff" d="M96 320c-53 0-96-43-96-96c0-42.5 27.6-78.6 65.9-91.2C64.7 126.1 64 119.1 64 112C64 50.1 114.1 0 176 0c43.1 0 80.5 24.3 99.2 60c14.7-17.1 36.5-28 60.8-28c44.2 0 80 35.8 80 80c0 5.5-.6 10.8-1.6 16c.5 0 1.1 0 1.6 0c53 0 96 43 96 96s-43 96-96 96L96 320zm-6.8 52c1.3-2.5 3.9-4 6.8-4s5.4 1.5 6.8 4l35.1 64.6c4.1 7.5 6.2 15.8 6.2 24.3l0 3c0 26.5-21.5 48-48 48s-48-21.5-48-48l0-3c0-8.5 2.1-16.9 6.2-24.3L89.2 372zm160 0c1.3-2.5 3.9-4 6.8-4s5.4 1.5 6.8 4l35.1 64.6c4.1 7.5 6.2 15.8 6.2 24.3l0 3c0 26.5-21.5 48-48 48s-48-21.5-48-48l0-3c0-8.5 2.1-16.9 6.2-24.3L249.2 372zm124.9 64.6L409.2 372c1.3-2.5 3.9-4 6.8-4s5.4 1.5 6.8 4l35.1 64.6c4.1 7.5 6.2 15.8 6.2 24.3l0 3c0 26.5-21.5 48-48 48s-48-21.5-48-48l0-3c0-8.5 2.1-16.9 6.2-24.3z"/>
    </svg>
</svg>

<svg xmlns="http://www.w3.org/2000/svg" viewBox="0 0 512 512" width="100" height="100">
<path fill="#c2e4ff" d="M96 320c-53 0-96-43-96-96c0-42.5 27.6-78.6 65.9-91.2C64.7 126.1 64 119.1 64 112C64 50.1 114.1 0 176 0c43.1 0 80.5 24.3 99.2 60c14.7-17.1 36.5-28 60.8-28c44.2 0 80 35.8 80 80c0 5.5-.6 10.8-1.6 16c.5 0 1.1 0 1.6 0c53 0 96 43 96 96s-43 96-96 96L96 320zm-6.8 52c1.3-2.5 3.9-4 6.8-4s5.4 1.5 6.8 4l35.1 64.6c4.1 7.5 6.2 15.8 6.2 24.3l0 3c0 26.5-21.5 48-48 48s-48-21.5-48-48l0-3c0-8.5 2.1-16.9 6.2-24.3L89.2 372zm160 0c1.3-2.5 3.9-4 6.8-4s5.4 1.5 6.8 4l35.1 64.6c4.1 7.5 6.2 15.8 6.2 24.3l0 3c0 26.5-21.5 48-48 48s-48-21.5-48-48l0-3c0-8.5 2.1-16.9 6.2-24.3L249.2 372zm124.9 64.6L409.2 372c1.3-2.5 3.9-4 6.8-4s5.4 1.5 6.8 4l35.1 64.6c4.1 7.5 6.2 15.8 6.2 24.3l0 3c0 26.5-21.5 48-48 48s-48-21.5-48-48l0-3c0-8.5 2.1-16.9 6.2-24.3z"/>
</svg>
<svg xmlns="http://www.w3.org/2000/svg" height="100" width="100" viewBox="0 0 640 512"><!--!Font Awesome Free 6.6.0 by @fontawesome - https://fontawesome.com License - https://fontawesome.com/license/free Copyright 2024 Fonticons, Inc.--><path fill="#c4dcee" d="M0 336c0 79.5 64.5 144 144 144l368 0c70.7 0 128-57.3 128-128c0-61.9-44-113.6-102.4-125.4c4.1-10.7 6.4-22.4 6.4-34.6c0-53-43-96-96-96c-19.7 0-38.1 6-53.3 16.2C367 64.2 315.3 32 256 32C167.6 32 96 103.6 96 192c0 2.7 .1 5.4 .2 8.1C40.2 219.8 0 273.2 0 336z"/></svg>
<svg xmlns="http://www.w3.org/2000/svg" viewBox="0 0 512 512" width="100" height="100"><!--!Font Awesome Free 6.6.0 by @fontawesome - https://fontawesome.com License - https://fontawesome.com/license/free Copyright 2024 Fonticons, Inc.-->
<path fill="#FFD43B" d="M361.5 1.2c5 2.1 8.6 6.6 9.6 11.9L391 121l107.9 19.8c5.3 1 9.8 4.6 11.9 9.6s1.5 10.7-1.6 15.2L446.9 256l62.3 90.3c3.1 4.5 3.7 10.2 1.6 15.2s-6.6 8.6-11.9 9.6L391 391 371.1 498.9c-1 5.3-4.6 9.8-9.6 11.9s-10.7 1.5-15.2-1.6L256 446.9l-90.3 62.3c-4.5 3.1-10.2 3.7-15.2 1.6s-8.6-6.6-9.6-11.9L121 391 13.1 371.1c-5.3-1-9.8-4.6-11.9-9.6s-1.5-10.7 1.6-15.2L65.1 256 2.8 165.7c-3.1-4.5-3.7-10.2-1.6-15.2s6.6-8.6 11.9-9.6L121 121 140.9 13.1c1-5.3 4.6-9.8 9.6-11.9s10.7-1.5 15.2 1.6L256 65.1 346.3 2.8c4.5-3.1 10.2-3.7 15.2-1.6zM160 256a96 96 0 1 1 192 0 96 96 0 1 1 -192 0zm224 0a128 128 0 1 0 -256 0 128 128 0 1 0 256 0z"/>
</svg>
<svg xmlns="http://www.w3.org/2000/svg" viewBox="0 0 640 512" width="100" height="100"><!--!Font Awesome Free 6.6.0 by @fontawesome - https://fontawesome.com License - https://fontawesome.com/license/free Copyright 2024 Fonticons, Inc.-->
<path fill="#FFD43B" d="M294.2 1.2c5.1 2.1 8.7 6.7 9.6 12.1l14.1 84.7 84.7 14.1c5.4 .9 10 4.5 12.1 9.6s1.5 10.9-1.6 15.4l-38.5 55c-2.2-.1-4.4-.2-6.7-.2c-23.3 0-45.1 6.2-64 17.1l0-1.1c0-53-43-96-96-96s-96 43-96 96s43 96 96 96c8.1 0 15.9-1 23.4-2.9c-36.6 18.1-63.3 53.1-69.8 94.9l-24.4 17c-4.5 3.2-10.3 3.8-15.4 1.6s-8.7-6.7-9.6-12.1L98.1 317.9 13.4 303.8c-5.4-.9-10-4.5-12.1-9.6s-1.5-10.9 1.6-15.4L52.5 208 2.9 137.2c-3.2-4.5-3.8-10.3-1.6-15.4s6.7-8.7 12.1-9.6L98.1 98.1l14.1-84.7c.9-5.4 4.5-10 9.6-12.1s10.9-1.5 15.4 1.6L208 52.5 278.8 2.9c4.5-3.2 10.3-3.8 15.4-1.6zM144 208a64 64 0 1 1 128 0 64 64 0 1 1 -128 0zM639.9 431.9c0 44.2-35.8 80-80 80l-271.9 0c-53 0-96-43-96-96c0-47.6 34.6-87 80-94.6l0-1.3c0-53 43-96 96-96c34.9 0 65.4 18.6 82.2 46.4c13-9.1 28.8-14.4 45.8-14.4c44.2 0 80 35.8 80 80c0 5.9-.6 11.7-1.9 17.2c37.4 6.7 65.8 39.4 65.8 78.7z"/>
</svg>
<svg xmlns="http://www.w3.org/2000/svg" viewBox="0 0 512 512" width="100" height="100"><!--!Font Awesome Free 6.6.0 by @fontawesome - https://fontawesome.com License - https://fontawesome.com/license/free Copyright 2024 Fonticons, Inc.-->
<path fill="#b9c6d0" d="M0 224c0 53 43 96 96 96l47.2 0L290 202.5c17.6-14.1 42.6-14 60.2 .2s22.8 38.6 12.8 58.8L333.7 320l18.3 0 64 0c53 0 96-43 96-96s-43-96-96-96c-.5 0-1.1 0-1.6 0c1.1-5.2 1.6-10.5 1.6-16c0-44.2-35.8-80-80-80c-24.3 0-46.1 10.9-60.8 28C256.5 24.3 219.1 0 176 0C114.1 0 64 50.1 64 112c0 7.1 .7 14.1 1.9 20.8C27.6 145.4 0 181.5 0 224zm330.1 3.6c-5.8-4.7-14.2-4.7-20.1-.1l-160 128c-5.3 4.2-7.4 11.4-5.1 17.8s8.3 10.7 15.1 10.7l70.1 0L177.7 488.8c-3.4 6.7-1.6 14.9 4.3 19.6s14.2 4.7 20.1 .1l160-128c5.3-4.2 7.4-11.4 5.1-17.8s-8.3-10.7-15.1-10.7l-70.1 0 52.4-104.8c3.4-6.7 1.6-14.9-4.2-19.6z"/>
</svg>